[Header]
FileType HTR
DataType HTRS
FileVersion 1
NumSegments 48
NumFrames 3
DataFrameRate 30
EulerRotationOrder ZYX
CalibrationUnits mm
RotationUnits Degrees
GlobalAxisofGravity Y
BoneLengthAxis Y
ScaleFactor 1.0
[SegmentNames&Hierarchy]
Wolf	GLOBAL
Becken	Wolf
Bauch	Becken
Bauch_001	Bauch
Brust	Bauch_001
Hals	Brust
Kopf_002	Hals
Kopf	Kopf_002
Unterkiefer	Kopf
Hals_fett	Unterkiefer
Maulunten	Unterkiefer
Mauloben	Kopf
MundW_L	Kopf
MundW_R	Kopf
Augen_con	Kopf
IK_Aug_R	Augen_con
IK_Aug_L	Augen_con
Aug_R	Kopf
aug_L	Kopf
Ohr_L	Kopf
Ohr_R	Kopf
Braun_O_L	Kopf
Braun_O_R	Kopf
aug_lied_O_L	Kopf
aug_lied_O_R	Kopf
aug_lied_U_L	Kopf
aug_lied_U_R	Kopf
Bauch_003	Brust
Schalterplatte_L	Bauch_003
Oberarm_L	Schalterplatte_L
Unterarm_L	Oberarm_L
Vorderpfote_L	Unterarm_L
Schalterplatte_R	Bauch_003
Oberarm_R	Schalterplatte_R
Unterarm_R	Oberarm_R
Vorderpfote_R	Unterarm_R
Schwanz	Becken
Schwanz_001	Schwanz
Schwanz_002	Schwanz_001
Schwanz_003	Schwanz_002
Oberschenkel_L	Becken
Unterschenkel_L	Oberschenkel_L
Pfote1_L	Unterschenkel_L
Pfote2_L	Pfote1_L
Oberschenkel_R	Becken
Unterschenkel_R	Oberschenkel_R
Pfote1_R	Unterschenkel_R
Pfote2_R	Pfote1_R
[BasePosition]
Wolf	0	0	0	0	0	0	1
Becken	0	0	0	0	0	0	1
Bauch	0	0	0	0	0	0	1
Bauch_001	0	0	0	0	0	0	1
Brust	0	0	0	0	0	0	1
Hals	0	0	0	0	0	0	1
Kopf_002	0	0	0	0	0	0	1
Kopf	0	0	0	0	0	0	1
Unterkiefer	0	0	0	0	0	0	1
Hals_fett	0	0	0	0	0	0	1
Maulunten	0	0	0	0	0	0	1
Mauloben	0	0	0	0	0	0	1
MundW_L	0	0	0	0	0	0	1
MundW_R	0	0	0	0	0	0	1
Augen_con	0	0	0	0	0	0	1
IK_Aug_R	0	0	0	0	0	0	1
IK_Aug_L	0	0	0	0	0	0	1
Aug_R	0	0	0	0	0	0	1
aug_L	0	0	0	0	0	0	1
Ohr_L	0	0	0	0	0	0	1
Ohr_R	0	0	0	0	0	0	1
Braun_O_L	0	0	0	0	0	0	1
Braun_O_R	0	0	0	0	0	0	1
aug_lied_O_L	0	0	0	0	0	0	1
aug_lied_O_R	0	0	0	0	0	0	1
aug_lied_U_L	0	0	0	0	0	0	1
aug_lied_U_R	0	0	0	0	0	0	1
Bauch_003	0	0	0	0	0	0	1
Schalterplatte_L	0	0	0	0	0	0	1
Oberarm_L	0	0	0	0	0	0	1
Unterarm_L	0	0	0	0	0	0	1
Vorderpfote_L	0	0	0	0	0	0	1
Schalterplatte_R	0	0	0	0	0	0	1
Oberarm_R	0	0	0	0	0	0	1
Unterarm_R	0	0	0	0	0	0	1
Vorderpfote_R	0	0	0	0	0	0	1
Schwanz	0	0	0	0	0	0	1
Schwanz_001	0	0	0	0	0	0	1
Schwanz_002	0	0	0	0	0	0	1
Schwanz_003	0	0	0	0	0	0	1
Oberschenkel_L	0	0	0	0	0	0	1
Unterschenkel_L	0	0	0	0	0	0	1
Pfote1_L	0	0	0	0	0	0	1
Pfote2_L	0	0	0	0	0	0	1
Oberschenkel_R	0	0	0	0	0	0	1
Unterschenkel_R	0	0	0	0	0	0	1
Pfote1_R	0	0	0	0	0	0	1
Pfote2_R	0	0	0	0	0	0	1
[Wolf]
4	0	0	0	-90	-0	0	1.0
5	0	0	0	-90	-0	0	1.0
6	0	0	0	-90	-0	0	1.0
[Becken]
4	0	0.5621799231	0.4366521239	-1.869786978	169.3881836	89.32783508	1.0
5	0	0.5621799231	0.4481801093	-1.771707892	169.387085	89.36308289	1.0
6	0	0.5621799231	0.4621801078	-1.647159219	169.3857574	89.40785217	1.0
[Bauch]
4	0.9404072165	7.335228958e-08	-0.3559131622	-9.70548399e-07	12.60522652	-8.885302805e-08	1.0
5	0.9404072165	7.335228958e-08	-0.3559131622	-9.70548399e-07	12.60522652	-8.885302805e-08	1.0
6	0.9404072165	7.335228958e-08	-0.3559131622	-9.70548399e-07	12.60522652	-8.885302805e-08	1.0
[Bauch_001]
4	1.081897616	8.323696221e-08	1.180524034e-08	-2.503413032e-09	2.360082865	-2.670307531e-08	1.0
5	1.081897616	8.323696221e-08	1.180524034e-08	-2.503413032e-09	2.360082865	-2.670307531e-08	1.0
6	1.081897616	8.323696221e-08	1.180524034e-08	-2.503413032e-09	2.360082865	-2.670307531e-08	1.0
[Brust]
4	1.069831252	8.440110832e-08	3.139576066e-08	5.110827715e-06	11.42404938	-3.549572648e-05	1.0
5	1.069831252	8.440110832e-08	3.139576066e-08	5.110827715e-06	11.89137077	-3.549572648e-05	1.0
6	1.069831252	8.440110832e-08	3.139576066e-08	5.110827715e-06	12.45896626	-3.549572648e-05	1.0
[Hals]
4	1.258022308	9.662471712e-08	0.6079561114	-4.810633527e-06	46.87745667	-2.341890877e-06	1.0
5	1.258022308	9.662471712e-08	0.6079561114	-4.810633527e-06	46.87745667	-2.341890877e-06	1.0
6	1.258022308	9.662471712e-08	0.6079561114	-4.810633527e-06	46.87745667	-2.341890877e-06	1.0
[Kopf_002]
4	1.752595186	3.012712114e-05	0.265181601	0.006653386634	-165.1497192	0.002557684667	1.0
5	1.752595186	3.012712114e-05	0.265181601	0.006653386634	-165.1497192	0.002557684667	1.0
6	1.752595186	3.012712114e-05	0.265181601	0.006653386634	-165.1497192	0.002557684667	1.0
[Kopf]
4	1.015782118	6.868503988e-08	-5.515175872e-08	0.06757368147	121.9061584	-0.02701959014	1.0
5	1.015782118	6.868503988e-08	-5.515175872e-08	0.06671551615	120.9716187	-0.02775201015	1.0
6	1.015782118	6.868503988e-08	-5.515175872e-08	0.06561945379	119.8362427	-0.02869588323	1.0
[Unterkiefer]
4	0.6370447874	0.004552732222	0.4060618579	5.412721634	-68.3888092	-3.093543291	1.0
5	0.6370447874	0.004552732222	0.4060618579	5.412721634	-68.3888092	-3.093543291	1.0
6	0.6370447874	0.004552732222	0.4060618579	5.412721634	-68.3888092	-3.093543291	1.0
[Hals_fett]
4	0.2998305857	0.007747137919	0.1206372604	-5.071650982	-59.35961151	5.585564613	1.0
5	0.2998305857	0.007747137919	0.1206372604	-5.071650982	-59.35961151	5.585564613	1.0
6	0.2998305857	0.007747137919	0.1206372604	-5.071650982	-59.35961151	5.585564613	1.0
[Maulunten]
4	0.0831861794	-0.007747565862	-0.1206544712	-3.322209358	38.97271347	-0.8718761206	1.0
5	0.0831861794	-0.007747565862	-0.1206544712	-3.322209358	38.97271347	-0.8718761206	1.0
6	0.0831861794	-0.007747565862	-0.1206544712	-3.322209358	38.97271347	-0.8718761206	1.0
[Mauloben]
4	0.9101490974	0.0004056713078	0.4003697634	-0.1032672822	-28.7776947	0.03543138877	1.0
5	0.9101490974	0.0004056713078	0.4003697634	-0.1032672822	-28.7776947	0.03543138877	1.0
6	0.9101490974	0.0004056713078	0.4003697634	-0.1032672822	-28.7776947	0.03543138877	1.0
[MundW_L]
4	0.673060894	-0.3618555963	0.3751283586	-179.8370972	-17.94885063	24.713974	1.0
5	0.673060894	-0.3618555963	0.3751283586	-179.8370972	-17.94885063	24.713974	1.0
6	0.673060894	-0.3618555963	0.3751283586	-179.8370972	-17.94885063	24.713974	1.0
[MundW_R]
4	0.6732419133	0.3627035022	0.3739836514	179.665329	-18.02427101	-24.69083595	1.0
5	0.6732419133	0.3627035022	0.3739836514	179.665329	-18.02427101	-24.69083595	1.0
6	0.6732419133	0.3627035022	0.3739836514	179.665329	-18.02427101	-24.69083595	1.0
[Augen_con]
4	1.807373166	-0.0001604110003	0.183581531	0.0982221961	157.1545258	0.02385941334	1.0
5	1.807373166	-0.0001604110003	0.183581531	0.0982221961	157.1545258	0.02385941334	1.0
6	1.807373166	-0.0001604110003	0.183581531	0.0982221961	157.1545258	0.02385941334	1.0
[IK_Aug_R]
4	0.3461295962	0.2943200469	-1.071020961e-07	-0.4194760025	-4.963055134	165.6946411	1.0
5	0.3461295962	0.2943200469	-1.071020961e-07	-0.4194760025	-4.963055134	165.6946411	1.0
6	0.3461295962	0.2943200469	-1.071020961e-07	-0.4194760025	-4.963055134	165.6946411	1.0
[IK_Aug_L]
4	0.3461301029	-0.2943200171	-1.967418939e-07	0.4194771945	-4.963055134	-165.6946411	1.0
5	0.3461301029	-0.2943200171	-1.967418939e-07	0.4194771945	-4.963055134	-165.6946411	1.0
6	0.3461301029	-0.2943200171	-1.967418939e-07	0.4194771945	-4.963055134	-165.6946411	1.0
[Aug_R]
4	1.035154939	0.2207805216	-0.09605780989	176.004776	-17.29167175	12.85548782	1.0
5	1.035154939	0.2207805216	-0.09605780989	176.004776	-17.29167175	12.85548782	1.0
6	1.035154939	0.2207805216	-0.09605780989	176.004776	-17.29167175	12.85548782	1.0
[aug_L]
4	1.03504467	-0.2215988934	-0.09535907209	-176.1891022	-17.33180046	-12.83102131	1.0
5	1.03504467	-0.2215988934	-0.09535907209	-176.1891022	-17.33180046	-12.83102131	1.0
6	1.03504467	-0.2215988934	-0.09535907209	-176.1891022	-17.33180046	-12.83102131	1.0
[Ohr_L]
4	0.6407766938	-0.3659991026	-0.6893324852	-24.34923935	53.07765961	-15.02013397	1.0
5	0.6407766938	-0.3659991026	-0.6893324852	-24.34923935	53.07765961	-15.02013397	1.0
6	0.6407766938	-0.3659991026	-0.6893324852	-24.34923935	53.07765961	-15.02013397	1.0
[Ohr_R]
4	0.640958488	0.36349985	-0.690484941	24.05785561	53.12415695	14.75856686	1.0
5	0.640958488	0.36349985	-0.690484941	24.05785561	53.12415695	14.75856686	1.0
6	0.640958488	0.36349985	-0.690484941	24.05785561	53.12415695	14.75856686	1.0
[Braun_O_L]
4	0.9801894426	-0.3706049323	-0.3292509615	-143.317215	-34.69636154	52.39493942	1.0
5	0.9801894426	-0.3706049323	-0.3292509615	-143.317215	-34.69636154	52.39493942	1.0
6	0.9801894426	-0.3706049323	-0.3292509615	-143.317215	-34.69636154	52.39493942	1.0
[Braun_O_R]
4	0.9803640842	0.3690741956	-0.3304226995	143.1826782	-34.83971405	-52.34676361	1.0
5	0.9803640842	0.3690741956	-0.3304226995	143.1826782	-34.83971405	-52.34676361	1.0
6	0.9803640842	0.3690741956	-0.3304226995	143.1826782	-34.83971405	-52.34676361	1.0
[aug_lied_O_L]
4	1.038882375	-0.3271433413	-0.1608109176	-175.8613434	-20.15596771	60.31667709	1.0
5	1.038882375	-0.3271433413	-0.1608109176	-175.8613434	-20.15596771	60.31667709	1.0
6	1.038882375	-0.3271433413	-0.1608109176	-175.8613434	-20.15596771	60.31667709	1.0
[aug_lied_O_R]
4	1.039044976	0.326115787	-0.1618431658	175.7657928	-20.31324005	-60.31218338	1.0
5	1.039044976	0.326115787	-0.1618431658	175.7657928	-20.31324005	-60.31218338	1.0
6	1.039044976	0.326115787	-0.1618431658	175.7657928	-20.31324005	-60.31218338	1.0
[aug_lied_U_L]
4	1.02191329	-0.3312865198	-0.1338392347	-159.8099365	-28.7482872	60.17462158	1.0
5	1.02191329	-0.3312865198	-0.1338392347	-159.8099365	-28.7482872	60.17462158	1.0
6	1.02191329	-0.3312865198	-0.1338392347	-159.8099365	-28.7482872	60.17462158	1.0
[aug_lied_U_R]
4	1.022078872	0.3303525448	-0.1348842829	159.7071381	-28.90532303	-60.15359116	1.0
5	1.022078872	0.3303525448	-0.1348842829	159.7071381	-28.90532303	-60.15359116	1.0
6	1.022078872	0.3303525448	-0.1348842829	159.7071381	-28.90532303	-60.15359116	1.0
[Bauch_003]
4	1.276869178	9.429641068e-08	-0.6079563498	-3.842957085e-06	-137.6799469	1.008550771e-05	1.0
5	1.276869178	9.429641068e-08	-0.6079563498	-3.842957085e-06	-137.6799469	1.008550771e-05	1.0
6	1.276869178	9.429641068e-08	-0.6079563498	-3.842957085e-06	-137.6799469	1.008550771e-05	1.0
[Schalterplatte_L]
4	0.9703242183	-0.380283922	-0.09970303625	-42.9632225	78.11720276	-70.75020599	1.0
5	0.9633097053	-0.3806886077	-0.0926784426	-37.35963058	77.66615295	-65.11235046	1.0
6	0.9546641111	-0.3810932934	-0.08381187171	-30.867342	76.97653961	-58.57565308	1.0
[Oberarm_L]
4	1.418636799	1.443549991e-07	9.778887033e-08	-44.73297119	-53.85488129	52.2132225	1.0
5	1.418636799	1.443549991e-07	9.778887033e-08	-45.13209534	-54.1752243	52.74843979	1.0
6	1.418636799	1.443549991e-07	9.778887033e-08	-45.58699036	-54.52811813	53.35080338	1.0
[Unterarm_L]
4	2.028227329	8.847563748e-08	-3.725290298e-07	0.3544204235	48.50881195	0.2409978062	1.0
5	2.028227329	8.847563748e-08	-3.725290298e-07	0.3942928314	47.9252243	0.2661638856	1.0
6	2.028227329	8.847563748e-08	-3.725290298e-07	0.4319854379	47.12853622	0.2864845991	1.0
[Vorderpfote_L]
4	1.705947638	1.746229827e-07	-5.704351125e-08	-1.617826104	58.17391205	-0.3679859638	1.0
5	1.705947638	1.746229827e-07	-5.704351125e-08	-1.732189178	60.81033325	-0.5143583417	1.0
6	1.705947638	1.746229827e-07	-5.704351125e-08	-1.899446368	63.96047211	-0.7202289104	1.0
[Schalterplatte_R]
4	1.093282104	0.4042677283	0.1671683639	7.115022659	70.16307831	35.61177444	1.0
5	1.070217133	0.4014629126	0.1531181633	8.697897911	71.44151306	37.90406799	1.0
6	1.042334199	0.3986580968	0.1356933713	11.26159668	73.07344055	41.27119446	1.0
[Oberarm_R]
4	1.418636322	-1.210719205e-07	-7.450580597e-08	74.06449127	-60.36570358	-88.79455566	1.0
5	1.418636322	-1.210719205e-07	-7.450580597e-08	79.72531128	-60.87824631	-95.4723587	1.0
6	1.418636322	-1.210719205e-07	-7.450580597e-08	86.29598236	-61.09143066	-103.2017212	1.0
[Unterarm_R]
4	2.028231859	1.676380634e-07	-3.608874977e-07	-3.36483717	50.98240662	-3.678931236	1.0
5	2.028231859	1.676380634e-07	-3.608874977e-07	-4.00035429	53.68582153	-4.449625015	1.0
6	2.028231859	1.676380634e-07	-3.608874977e-07	-4.823637962	56.58037949	-5.447320938	1.0
[Vorderpfote_R]
4	1.705937624	7.799826562e-08	1.461012289e-07	-0.1017211378	78.19721985	0.652921319	1.0
5	1.705937624	7.799826562e-08	1.461012289e-07	-1.204628944	70.97293091	0.4160069823	1.0
6	1.705937624	7.799826562e-08	1.461012289e-07	-2.02924943	61.16575623	0.7332673669	1.0
[Schwanz]
4	-0.1613513827	-1.382431947e-08	0.09908012301	-2.220226997e-05	-112.7447357	2.181978562e-05	1.0
5	-0.1532592028	-1.382431947e-08	0.09514101595	-2.220226997e-05	-113.6370468	2.181978562e-05	1.0
6	-0.1429882348	-1.382431947e-08	0.08938503265	-2.220226997e-05	-114.7210846	2.181978562e-05	1.0
[Schwanz_001]
4	0.9104328156	6.868503988e-08	7.788912626e-08	-2.408194405e-06	6.075763226	-5.75290926e-07	1.0
5	0.9104328156	6.868503988e-08	7.788912626e-08	-2.408194405e-06	7.292067528	-5.75290926e-07	1.0
6	0.9104328156	6.868503988e-08	7.788912626e-08	-2.408194405e-06	8.770144463	-5.75290926e-07	1.0
[Schwanz_002]
4	0.7855660319	5.704351125e-08	-1.185253495e-07	8.174235973e-07	-10.46459389	-1.362372615e-07	1.0
5	0.7855660319	5.704351125e-08	-1.185253495e-07	8.174235973e-07	-9.584672928	-1.362372615e-07	1.0
6	0.7855660319	5.704351125e-08	-1.185253495e-07	8.174235973e-07	-8.51568985	-1.362372615e-07	1.0
[Schwanz_003]
4	0.8350355029	6.286426668e-08	-2.072192729e-07	-2.187832479e-06	-0.9932810068	1.867661581e-07	1.0
5	0.8350355029	6.286426668e-08	-2.072192729e-07	-2.187832479e-06	-1.458823681	1.867661581e-07	1.0
6	0.8350355029	6.286426668e-08	-2.072192729e-07	-2.187832479e-06	-2.024262667	1.867661581e-07	1.0
[Oberschenkel_L]
4	0.4953411818	-0.5836999416	0.09000980109	-115.9613876	-96.32017517	120.2409973	1.0
5	0.5175120831	-0.5836999416	0.06754583865	-135.2952728	-98.18778992	139.7097626	1.0
6	0.5444315672	-0.5836999416	0.04025996476	-146.1695099	-100.5784607	150.7170868	1.0
[Unterschenkel_L]
4	1.686439037	6.984918599e-08	-6.053597446e-08	-14.59984112	-47.68411255	19.87604332	1.0
5	1.686439037	6.984918599e-08	-6.053597446e-08	-16.86980057	-52.44551086	22.44256401	1.0
6	1.686439037	6.984918599e-08	-6.053597446e-08	-19.46393585	-56.647789	25.38837814	1.0
[Pfote1_L]
4	1.190900326	6.519258022e-08	1.396983862e-07	2.619808674	23.65036011	-5.15147686	1.0
5	1.190900326	6.519258022e-08	1.396983862e-07	2.571236372	25.08372307	-5.26950407	1.0
6	1.190900326	6.519258022e-08	1.396983862e-07	2.517813444	26.55109787	-5.392969608	1.0
[Pfote2_L]
4	0.9876257777	7.450580597e-08	-5.587935092e-08	-13.92640114	79.84754181	-18.32465744	1.0
5	0.9876257777	7.450580597e-08	-5.587935092e-08	-19.58565521	81.71453857	-24.11586189	1.0
6	0.9876257777	7.450580597e-08	-5.587935092e-08	-27.37746429	83.37718964	-32.07277679	1.0
[Oberschenkel_R]
4	0.7203069925	0.5837000012	0.08177042007	-13.96742439	-56.91173172	8.320584297	1.0
5	0.7063185573	0.5837000012	0.08420046419	-14.24371243	-57.94701385	8.648142815	1.0
6	0.6888589859	0.5837000012	0.08804322034	-14.62160301	-59.27544022	9.09155941	1.0
[Unterschenkel_R]
4	1.68644917	1.164153218e-07	2.793967901e-08	18.68488503	-45.88614273	-28.9710083	1.0
5	1.68644917	1.164153218e-07	2.793967901e-08	18.23625183	-45.30401993	-28.41856575	1.0
6	1.68644917	1.164153218e-07	2.793967901e-08	17.67693138	-44.55700302	-27.72756958	1.0
[Pfote1_R]
4	1.190900087	1.856824383e-07	4.190951941e-08	-2.33764863	35.80260468	5.783163071	1.0
5	1.190900087	1.856824383e-07	4.190951941e-08	-2.333473444	35.71762848	5.790306568	1.0
6	1.190900087	1.856824383e-07	4.190951941e-08	-2.327871084	35.60319519	5.799913406	1.0
[Pfote2_R]
4	0.9876258373	6.984919754e-09	6.635672634e-08	12.28906822	81.38258362	19.5848465	1.0
5	0.9876258373	6.984919754e-09	6.635672634e-08	12.55470562	81.83600616	19.77430916	1.0
6	0.9876258373	6.984919754e-09	6.635672634e-08	12.98473167	82.4267807	20.10584068	1.0
[EndOfFile]
